<?xml version="1.0" encoding="UTF-8" standalone="no"?>
<!-- Created with Inkscape (http://www.inkscape.org/) -->

<svg
   xmlns:dc="http://purl.org/dc/elements/1.1/"
   xmlns:cc="http://creativecommons.org/ns#"
   xmlns:rdf="http://www.w3.org/1999/02/22-rdf-syntax-ns#"
   xmlns:svg="http://www.w3.org/2000/svg"
   xmlns="http://www.w3.org/2000/svg"
   xmlns:sodipodi="http://sodipodi.sourceforge.net/DTD/sodipodi-0.dtd"
   xmlns:inkscape="http://www.inkscape.org/namespaces/inkscape"
   width="40.0mm"
   height="60.0mm"
   viewBox="0 0 40.0 60.0"
   id="svg2"
   version="1.1"
   inkscape:version="0.91 r13725"
   sodipodi:docname="myFirstPCB.svg">
  <sodipodi:namedview
     id="base"
     pagecolor="#ffffff"
     bordercolor="#666666"
     borderopacity="1.0"
     inkscape:pageopacity="0.0"
     inkscape:pageshadow="2"
     inkscape:zoom="1.979899"
     inkscape:cx="58.269694"
     inkscape:cy="101.68691"
     inkscape:document-units="mm"
     inkscape:current-layer="g3358"
     showgrid="true"
     inkscape:window-width="875"
     inkscape:window-height="648"
     inkscape:window-x="337"
     inkscape:window-y="331"
     inkscape:window-maximized="0"
     borderlayer="true">
    <inkscape:grid
       id="grid3339"
       units="mm"
       type="xygrid"
       empspacing="1"
       spacingy="2.54"
       spacingx="2.54" />
    <inkscape:grid
       spacingx="2.54"
       spacingy="2.54"
       empspacing="1"
       type="xygrid"
       units="mm"
       id="grid3399" />
    <inkscape:grid
       id="grid3458"
       units="mm"
       type="xygrid"
       empspacing="1"
       spacingy="2.54"
       spacingx="2.54" />
  </sodipodi:namedview>
  <defs
     id="defs4" />
  <metadata
     id="metadata7">
    <rdf:RDF>
      <cc:Work
         rdf:about="">
        <dc:format>image/svg+xml</dc:format>
        <dc:type
           rdf:resource="http://purl.org/dc/dcmitype/StillImage" />
        <dc:title />
      </cc:Work>
    </rdf:RDF>
  </metadata>
  <g
     id="g3342"
     sodipodi:insensitive="true"
     inkscape:groupmode="layer"
     inkscape:label="[fixed] BG">
    <rect
       id="rect3344"
       style="stroke:none;fill-opacity:1;fill:#FFFFFF"
       height="100.0"
       width="100.0"
       y="0"
       x="0" />
  </g>
  <g
     id="g3348"
     inkscape:groupmode="layer"
     inkscape:label="B.Cu-disabled" />
  <g
     id="g3350"
     inkscape:groupmode="layer"
     inkscape:label="B.Mask-disabled" />
  <g
     id="g3352"
     inkscape:groupmode="layer"
     inkscape:label="B.Silk-disabled" />
  <g
     id="g3354"
     inkscape:groupmode="layer"
     inkscape:label="F.Cu"
     style="display:inline">
    <path
       sodipodi:type="spiral"
       style="fill:none;fill-rule:evenodd;stroke:#000000;stroke-width:0.80000001;stroke-linecap:butt;stroke-linejoin:miter;stroke-miterlimit:4;stroke-dasharray:none;stroke-opacity:1"
       id="path3495"
       sodipodi:cx="13.959921"
       sodipodi:cy="27.796427"
       sodipodi:expansion="1"
       sodipodi:revolution="3"
       sodipodi:radius="6.4162502"
       sodipodi:argument="-17.879833"
       sodipodi:t0="0.30207443"
       d="m 15.759481,28.516251 c -0.254204,1.212527 -1.562255,1.863556 -2.717962,1.57618 -1.481695,-0.368435 -2.265768,-1.985423 -1.874048,-3.412984 0.480521,-1.751177 2.40902,-2.669133 4.108007,-2.171915 2.020885,0.591424 3.0732,2.832873 2.469782,4.80303 -0.701608,2.290749 -3.256892,3.477724 -5.498052,2.767649 -2.560727,-0.811324 -3.8825641,-3.681027 -3.0655164,-6.193075 0.9207184,-2.830788 4.1052464,-4.28763 6.8880984,-3.363383 3.100911,1.029881 4.692864,4.529526 3.66125,7.583121 -0.398693,1.180139 -1.15457,2.225781 -2.142548,2.98322" />
    <path
       d="m -27.034545,31.036093 c -0.254203,1.212527 -1.562255,1.863556 -2.717961,1.576181 -1.481696,-0.368436 -2.265769,-1.985423 -1.874048,-3.412985 0.48052,-1.751177 2.40902,-2.669133 4.108007,-2.171915 2.020884,0.591424 3.073199,2.832873 2.469782,4.80303 -0.701608,2.290749 -3.256893,3.477724 -5.498053,2.767649 -2.560726,-0.811324 -3.882564,-3.681027 -3.065516,-6.193075 0.920718,-2.830788 4.105246,-4.28763 6.888099,-3.363383 3.10091,1.029881 4.692864,4.529526 3.66125,7.583121 -0.398694,1.180139 -1.15457,2.225781 -2.142549,2.98322"
       sodipodi:t0="0.30207443"
       sodipodi:argument="-17.879833"
       sodipodi:radius="6.4162502"
       sodipodi:revolution="3"
       sodipodi:expansion="1"
       sodipodi:cy="30.316269"
       sodipodi:cx="-28.834105"
       id="path4297"
       style="fill:none;fill-rule:evenodd;stroke:#000000;stroke-width:0.80000001;stroke-linecap:butt;stroke-linejoin:miter;stroke-miterlimit:4;stroke-dasharray:none;stroke-opacity:1"
       sodipodi:type="spiral"
       transform="scale(-1,1)" />
    <rect
       style="fill:#000000;stroke:none;stroke-width:0.70866144;stroke-miterlimit:4;stroke-dasharray:none"
       id="rect4301"
       width="1.2599207"
       height="3.124603"
       x="17.689285"
       y="36.867859" />
    <rect
       y="36.867859"
       x="19.755554"
       height="3.124603"
       width="1.2599207"
       id="rect4303"
       style="fill:#000000;stroke:none;stroke-width:0.70866144;stroke-miterlimit:4;stroke-dasharray:none" />
    <path
       style="fill:none;stroke:#000000;stroke-width:2;stroke-miterlimit:4;stroke-dasharray:none"
       d="M 18.766189,55.702358 C 14.390579,55.286057 10.090683,52.400341 7.1996301,47.939886 5.697443,45.622241 4.5477515,42.612566 3.9440528,39.417407 c -0.2245952,-1.188708 -0.319484,-5.597 -0.1503285,-6.983947 0.2457394,-2.014875 0.8871938,-4.401141 1.7320119,-6.443228 0.7289405,-1.76199 1.654762,-3.327375 2.9754124,-5.030839 0.3515868,-0.453498 0.6392475,-0.858085 0.6392475,-0.899085 0,-0.041 -0.2461006,-0.690491 -0.5468903,-1.443316 C 7.7322201,16.461342 6.8644714,13.298971 6.4156083,10.67999 6.030581,8.4334798 5.9603923,4.3113175 6.3013619,3.9703476 c 0.098346,-0.098346 0.8084396,0.8425287 1.3021169,1.7253038 1.104852,1.9756625 2.5773152,6.2535946 3.1090612,9.0327276 0.216631,1.132212 0.496435,1.740302 0.937404,2.037239 0.526283,0.354383 1.006707,0.303755 2.177356,-0.229455 2.540302,-1.157064 3.71252,-1.45538 5.997222,-1.526219 2.424179,-0.07516 3.782853,0.18816 6.198811,1.201389 1.34084,0.562337 1.731752,0.618532 2.353218,0.338291 0.56446,-0.254536 0.780824,-0.641442 1.024507,-1.832041 0.860493,-4.204246 2.565708,-8.5930047 4.084433,-10.5122126 0.302702,-0.3571807 0.307721,-0.5681706 0.419101,-0.041927 0.04479,0.2116274 0.07744,1.337277 0.07256,2.5014436 -0.0069,1.639213 -0.05906,2.4463372 -0.231386,3.578175 -0.419204,2.753415 -1.029458,5.093122 -2.092162,8.021322 l -0.557036,1.534867 0.832095,1.042739 c 2.37352,2.974377 3.792461,6.142005 4.598373,10.265359 0.247833,1.26801 0.266439,1.556421 0.273086,4.233333 0.0059,2.362462 -0.025,3.042669 -0.173802,3.830156 -1.003726,5.311849 -2.946431,9.182535 -6.15861,12.27054 -2.220823,2.134971 -4.855303,3.54974 -7.619382,4.091762 -0.942603,0.184839 -3.015011,0.270747 -4.082144,0.169218 z"
       id="path4309"
       inkscape:connector-curvature="0"
       sodipodi:nodetypes="ssssssssssssssssssccssscsssssss" />
    <rect
       style="fill:#000000;stroke:none;stroke-width:0.70866144;stroke-miterlimit:4;stroke-dasharray:none"
       id="rect4312"
       width="1.2599207"
       height="3.124603"
       x="21.751167"
       y="36.867859" />
  </g>
  <g
     id="g3356"
     inkscape:groupmode="layer"
     inkscape:label="F.Mask-auto"
     style="display:inline">
    <path
       sodipodi:type="spiral"
       style="fill:none;fill-rule:evenodd;stroke:#000000;stroke-width:0.80000001;stroke-linecap:butt;stroke-linejoin:miter;stroke-miterlimit:4;stroke-dasharray:none;stroke-opacity:1"
       id="path4544"
       sodipodi:cx="13.959921"
       sodipodi:cy="27.796427"
       sodipodi:expansion="1"
       sodipodi:revolution="3"
       sodipodi:radius="6.4162502"
       sodipodi:argument="-17.879833"
       sodipodi:t0="0.30207443"
       d="m 15.759481,28.516251 c -0.254204,1.212527 -1.562255,1.863556 -2.717962,1.57618 -1.481695,-0.368435 -2.265768,-1.985423 -1.874048,-3.412984 0.480521,-1.751177 2.40902,-2.669133 4.108007,-2.171915 2.020885,0.591424 3.0732,2.832873 2.469782,4.80303 -0.701608,2.290749 -3.256892,3.477724 -5.498052,2.767649 -2.560727,-0.811324 -3.8825641,-3.681027 -3.0655164,-6.193075 0.9207184,-2.830788 4.1052464,-4.28763 6.8880984,-3.363383 3.100911,1.029881 4.692864,4.529526 3.66125,7.583121 -0.398693,1.180139 -1.15457,2.225781 -2.142548,2.98322" />
    <path
       d="m -27.034545,31.036093 c -0.254203,1.212527 -1.562255,1.863556 -2.717961,1.576181 -1.481696,-0.368436 -2.265769,-1.985423 -1.874048,-3.412985 0.48052,-1.751177 2.40902,-2.669133 4.108007,-2.171915 2.020884,0.591424 3.073199,2.832873 2.469782,4.80303 -0.701608,2.290749 -3.256893,3.477724 -5.498053,2.767649 -2.560726,-0.811324 -3.882564,-3.681027 -3.065516,-6.193075 0.920718,-2.830788 4.105246,-4.28763 6.888099,-3.363383 3.10091,1.029881 4.692864,4.529526 3.66125,7.583121 -0.398694,1.180139 -1.15457,2.225781 -2.142549,2.98322"
       sodipodi:t0="0.30207443"
       sodipodi:argument="-17.879833"
       sodipodi:radius="6.4162502"
       sodipodi:revolution="3"
       sodipodi:expansion="1"
       sodipodi:cy="30.316269"
       sodipodi:cx="-28.834105"
       id="path4546"
       style="fill:none;fill-rule:evenodd;stroke:#000000;stroke-width:0.80000001;stroke-linecap:butt;stroke-linejoin:miter;stroke-miterlimit:4;stroke-dasharray:none;stroke-opacity:1"
       sodipodi:type="spiral"
       transform="scale(-1,1)" />
    <rect
       style="fill:#000000;stroke:none;stroke-width:0.70866144;stroke-miterlimit:4;stroke-dasharray:none"
       id="rect4548"
       width="1.2599207"
       height="3.124603"
       x="17.689285"
       y="36.867859" />
    <rect
       y="36.867859"
       x="19.755554"
       height="3.124603"
       width="1.2599207"
       id="rect4550"
       style="fill:#000000;stroke:none;stroke-width:0.70866144;stroke-miterlimit:4;stroke-dasharray:none" />
    <path
       style="fill:none;stroke:#000000;stroke-width:2;stroke-miterlimit:4;stroke-dasharray:none"
       d="M 18.766189,55.702358 C 14.390579,55.286057 10.090683,52.400341 7.1996301,47.939886 5.697443,45.622241 4.5477515,42.612566 3.9440528,39.417407 c -0.2245952,-1.188708 -0.319484,-5.597 -0.1503285,-6.983947 0.2457394,-2.014875 0.8871938,-4.401141 1.7320119,-6.443228 0.7289405,-1.76199 1.654762,-3.327375 2.9754124,-5.030839 0.3515868,-0.453498 0.6392475,-0.858085 0.6392475,-0.899085 0,-0.041 -0.2461006,-0.690491 -0.5468903,-1.443316 C 7.7322201,16.461342 6.8644714,13.298971 6.4156083,10.67999 6.030581,8.4334798 5.9603923,4.3113175 6.3013619,3.9703476 c 0.098346,-0.098346 0.8084396,0.8425287 1.3021169,1.7253038 1.104852,1.9756625 2.5773152,6.2535946 3.1090612,9.0327276 0.216631,1.132212 0.496435,1.740302 0.937404,2.037239 0.526283,0.354383 1.006707,0.303755 2.177356,-0.229455 2.540302,-1.157064 3.71252,-1.45538 5.997222,-1.526219 2.424179,-0.07516 3.782853,0.18816 6.198811,1.201389 1.34084,0.562337 1.731752,0.618532 2.353218,0.338291 0.56446,-0.254536 0.780824,-0.641442 1.024507,-1.832041 0.860493,-4.204246 2.565708,-8.5930047 4.084433,-10.5122126 0.302702,-0.3571807 0.307721,-0.5681706 0.419101,-0.041927 0.04479,0.2116274 0.07744,1.337277 0.07256,2.5014436 -0.0069,1.639213 -0.05906,2.4463372 -0.231386,3.578175 -0.419204,2.753415 -1.029458,5.093122 -2.092162,8.021322 l -0.557036,1.534867 0.832095,1.042739 c 2.37352,2.974377 3.792461,6.142005 4.598373,10.265359 0.247833,1.26801 0.266439,1.556421 0.273086,4.233333 0.0059,2.362462 -0.025,3.042669 -0.173802,3.830156 -1.003726,5.311849 -2.946431,9.182535 -6.15861,12.27054 -2.220823,2.134971 -4.855303,3.54974 -7.619382,4.091762 -0.942603,0.184839 -3.015011,0.270747 -4.082144,0.169218 z"
       id="path4552"
       inkscape:connector-curvature="0"
       sodipodi:nodetypes="ssssssssssssssssssccssscsssssss" />
    <rect
       style="fill:#000000;stroke:none;stroke-width:0.70866144;stroke-miterlimit:4;stroke-dasharray:none"
       id="rect4554"
       width="1.2599207"
       height="3.124603"
       x="21.751167"
       y="36.867859" />
  </g>
  <g
     id="g3358"
     inkscape:groupmode="layer"
     inkscape:label="F.Silk">
    <text
       xml:space="preserve"
       style="font-style:normal;font-weight:normal;font-size:2.46911526px;line-height:125%;font-family:sans-serif;letter-spacing:0px;word-spacing:0px;fill:#000080;fill-opacity:1;stroke:none;stroke-width:1px;stroke-linecap:butt;stroke-linejoin:miter;stroke-opacity:1;"
       x="31.535595"
       y="-2.2187471"
       id="text4594"
       sodipodi:linespacing="125%"
       transform="matrix(0.1220666,0.99252191,-0.99252191,0.1220666,0,0)"><tspan
         sodipodi:role="line"
         id="tspan4596"
         x="31.535595"
         y="-2.2187471"
         style="font-style:normal;font-variant:normal;font-weight:normal;font-stretch:normal;font-family:BubbleGum;-inkscape-font-specification:BubbleGum;fill:#000080;">myFirstPCB</tspan></text>
  </g>
  <g
     id="g3360"
     inkscape:groupmode="layer"
     inkscape:label="Drill">
    <circle
       style="fill:#ffff00;stroke:none;stroke-width:0.28222221"
       id="path3491"
       cx="14.153571"
       cy="26.897219"
       r="1" />
    <circle
       r="1"
       cy="29.921028"
       cx="28.718254"
       id="circle3493"
       style="fill:#ffff00;stroke:none;stroke-width:0.28222221" />
  </g>
  <g
     id="g3346"
     inkscape:groupmode="layer"
     inkscape:label="Edge.Cuts">
    <path
       id="path3445"
       d="M34.05949 1.807666L33.887925853 1.81651564928L33.7121114916 1.85251498417L33.5323833323 1.91505523434L33.3490777913 2.00352762947L33.1625312849 2.11732339922L32.9730802296 2.25583377326L32.7810610416 2.41844998126L32.5868101373 2.6045632529L32.1929588449 3.04484590572L31.7942176833 3.57181156909L31.393277983 4.18059008036L30.9928310747 4.86631127687L30.5955682891 5.62410499597L30.2041809568 6.44910107503L29.8213604084 7.33642935139L29.4497979748 8.2812196624L29.0921849865 9.27860184542L28.7512127741 10.3237057378L28.4295726684 11.4116611769L28.129956 12.537598L27.8302117476 13.8206116419L27.573597 15.098529L26.6976408959 14.6670785023L25.8062063345 14.2914549703L24.9011307558 13.9721247243L23.9842515996 13.7095540848L23.057406306 13.5042093722L22.1224323149 13.3565569069L21.1811670663 13.2670630094L20.235448 13.236194L19.7353513259 13.2460221541L19.2363156386 13.2722720352L18.738610871 13.3148706991L18.2425069557 13.3737452018L17.7482738257 13.4488225991L17.2561814136 13.5400299469L16.7664996524 13.6472943012L16.2794984748 13.7705427178L15.7954478136 13.9097022525L15.3146176016 14.0646999614L14.8372777716 14.2354629002L14.3636982565 14.4219181249L13.8941489889 14.6239926913L13.4288999018 14.8416136554L12.9682209279 15.074708073L12.512382 15.323203L12.2393103182 13.934185466L11.914812 12.537598L11.5991607788 11.3545160839L11.2597507333 10.2149812373L10.8996807724 9.12436794797L10.5220498049 8.08805070391L10.1299567397 7.11140399299L9.72650048555 6.19980230311L9.31477995136 5.35862012217L8.89789404596 4.59323193809L8.47894167819 3.90901223874L8.06102175688 3.31133551205L7.64723319089 2.80557624591L7.44285657514 2.58884518801L7.24067488904 2.39710892822L7.04107549619 2.23103927751L6.84444576019 2.09130804688L6.65117304465 1.97858704731L6.46164471317 1.8935480898L6.27624812936 1.83686298532L6.09537065683 1.80920354487L5.91939965917 1.81124157943L5.7487225 1.8436489L5.59151023013 1.90378137575L5.44251004649 1.99190019557L5.30188849449 2.10753504466L5.16981211953 2.25021560822L5.04644746701 2.41947157145L4.93196108233 2.61483261956L4.8265195109 2.83582843775L4.73028929811 3.08198871123L4.64343698936 3.35284312519L4.56612913007 3.64792136483L4.44081294144 4.30886806201L4.35567309544 5.06106628439L4.31204195527 5.90075351359L4.31108677686 6.8144490263L4.35239554323 7.78593333788L4.43493170827 8.8073357879L4.55765872589 9.87078571594L4.71954004998 10.9684124616L4.91953913443 12.0923453644L5.15661943314 13.234713764L5.4297444 14.387647L5.81840681823 15.8223071431L6.24940472886 17.2149087087L6.71751302506 18.5496021699L7.2175066 19.810538L6.59794514582 20.6031209147L6.01389126381 21.4279307284L5.46595190095 22.2831903778L4.95473400422 23.1671227994L4.48084452058 24.0779509297L4.04489039702 25.0138977054L3.64747858051 25.973186063L3.28921601802 26.954038939L2.97070965654 27.9546792701L2.69256644302 28.9733299928L2.45539332446 30.0082140436L2.25979724782 31.0575543591L2.10638516008 32.119573876L1.99576400821 33.1924955307L1.92854073919 34.2745422598L1.9053223 35.3639369999L1.92918788842 36.5026143782L1.99998617733 37.6263435854L2.11656551498 38.7337343717L2.27777424967 39.8233964873L2.48246072965 40.8939396824L2.7294733032 41.943973707L3.01766031859 42.9721083114L3.34587012411 43.9769532456L3.71295106801 44.9571182597L4.11775149857 45.9112131041L4.55911976406 46.8378475287L5.03590421276 47.7356312838L5.54695319295 48.6031741195L6.09111505288 49.4390857858L6.66723814084 50.2419760331L7.27417080509 51.0104546114L7.91076139391 51.7431312708L8.57585825558 52.4386157615L9.26830973836 53.0955178337L9.98696419053 53.7124472375L10.7306699604 54.288013723L11.4982753961 54.8208270404L12.2886288461 55.3094969399L13.1005786585 55.7526331715L13.9329731817 56.1488454854L14.7846607639 56.4967436318L15.6544897535 56.7949373608L16.5413084985 57.0420364226L17.4439653475 57.2366505672L18.3613086485 57.3773895449L19.2921867499 57.4628631058L20.235448 57.491681L21.1444113489 57.464509428L22.0472063282 57.3834476373L22.9423304405 57.2492468731L23.8282811883 57.0626583803L24.7035560745 56.8244334041L25.5666526016 56.5353231895L26.4160682723 56.1960789816L27.2503005891 55.8074520254L28.0678470549 55.370193566L28.8672051721 54.8850548484L29.6468724434 54.3527871178L30.4053463716 53.7741416192L31.1411244591 53.1498695975L31.8527042088 52.480722298L32.5385831231 51.7674509657L33.1972587048 51.0108068456L33.8240751142 50.2157018124L34.4149632592 49.3877560723L34.9693007638 48.5287833671L35.4864652521 47.640597439L35.9658343482 46.7250120299L36.4067856761 45.7838408819L36.80869686 44.8188977368L37.1709455238 43.8319963369L37.4929092916 42.824950424L37.7739657875 41.7995737401L38.0134926355 40.7576800274L38.2108674597 39.7010830277L38.3654678843 38.6315964831L38.4766715331 37.5510341356L38.5438560303 36.4612097272L38.566399 35.3639369999L38.5414789004 34.2435406853L38.4700421773 33.1311611574L38.3527660171 32.0287192586L38.1903276063 30.9381358309L37.9834041314 29.8613317166L37.7326727787 28.8002277578L37.4388107348 27.7567447967L37.1024951861 26.7328036755L36.7244033192 25.7303252362L36.3052123203 24.7512303212L35.8455993761 23.7974397725L35.3462416729 22.8708744323L34.8078163972 21.9734551428L34.2310007356 21.1071027461L33.6164718743 20.2737380845L32.964907 19.475282L33.424885474 18.2817316935L33.85601941 17.0273456159L34.2541263909 15.7250189804L34.615024 14.387647L34.8881489632 13.2347137839L35.1252292597 12.0923454032L35.3252283432 10.9684125179L35.4871096678 9.87078578814L35.6098366873 8.80733587389L35.6923728558 7.78593343521L35.733681627 6.81444913215L35.7327264549 5.90075362474L35.6890953225 5.06106639697L35.6039554856 4.3088681717L35.4786393071 3.64792146728L35.4013314532 3.35284322236L35.3144791502 3.08198880204L35.2182489433 2.83582852111L35.1128073779 2.61483269435L34.9983209995 2.41947163657L34.8749563534 2.25021566255L34.742879985 2.10753508709L34.6022584397 1.99190022498L34.4532582629 1.90378139102L34.296046 1.8436489L34.05949 1.8076657L34.05949 1.807666"
       style="fill:none;stroke:#ff0000;stroke-width:0.2;stroke-miterlimit:4;stroke-dasharray:none"
       inkscape:connector-curvature="0" />
    <path
       inkscape:connector-curvature="0"
       id="path3451"
       d="M10.430812 42.399487L13.308284 40.243417L17.464631 42.853398L21.301258 43.874695L25.564174 43.874695L29.187658 42.853398L29.93367 45.349899L29.187658 48.413791L24.711593 48.527265L18.104065 49.094652L13.308284 46.371197L10.430812 42.399487"
       style="fill:none;fill-rule:evenodd;stroke:#ff0000;stroke-width:0.2;stroke-linecap:butt;stroke-linejoin:miter;stroke-opacity:1;stroke-miterlimit:4;stroke-dasharray:none" />
  </g>
</svg>
